<svg id="Capa_1" enable-background="new 0 0 512 512" height="512" viewBox="0 0 512 512" width="512" xmlns="http://www.w3.org/2000/svg"><g><g><path d="m306.121 275.457c5.522 0 10-4.478 10-10s-4.478-10-10-10h-20.913c-5.522 0-10 4.478-10 10s4.478 10 10 10z"/><path d="m495.593 249.102 2.474-5.771c2.187-5.088 1.769-10.948-1.117-15.677-2.724-4.462-7.348-7.43-12.501-8.071-5.33-1.179-40.115-8.312-101.272-8.312h-9.012l-17.157-40.509c-6.497-15.344-21.348-25.258-37.832-25.258h-123.304c-22.192 0-43.361 9.218-58.078 25.289l-37.082 40.478h-90.712c-3.386 0-6.541 1.713-8.386 4.553-1.845 2.839-2.127 6.418-.751 9.512l19.515 43.868c1.219 2.742.278 5.917-2.232 7.547l-6.765 4.39c-7.024 4.59-11.381 12.55-11.381 20.957 0 13.776 11.208 24.984 24.984 24.984h18.121c22.503 0 39.987-9.735 49.839-16.933-.746 3.288-1.153 6.703-1.153 10.213 0 25.438 20.695 46.135 46.134 46.135 25.1 0 46.137-21.035 46.137-46.135 0-25.178-21.087-46.132-46.214-46.132h-12.365c-13.735 0-27.018 4.938-37.399 13.902-12.839 11.072-27.497 18.949-44.978 18.949h-18.122c-2.708 0-4.918-2.171-4.982-4.863.083-2.014.746-3.224 2.399-4.39l6.633-4.304c10.81-7.019 14.855-20.663 9.619-32.448l-13.26-29.808h357.783c53.592 0 86.505 5.75 95.103 7.46l-4.542 10.594c-11.858 2.39-20.815 12.887-20.815 25.439v13.451c0 10.12 5.826 18.899 14.297 23.176-1.953 4.423-6.378 7.518-11.515 7.518h-20.704c-.758-24.532-21.699-44.678-46.191-44.678h-8.046c-19.08 0-37.348 8.125-50.118 22.293-10.966 12.203-24.076 22.385-41.313 22.385h-28.242c-5.522 0-10 4.478-10 10s4.478 10 10 10h28.242c19.849 0 39.388-9.636 54.13-26.557-.458 2.604-.71 5.278-.71 8.011 0 25.438 20.696 46.135 46.135 46.135 18.843 0 35.074-11.361 42.229-27.589h24.59c15.264 0 28.104-10.552 31.624-24.743h5.03c10.831 0 19.644-8.812 19.644-19.644v-26.066c-.004-9.724-7.118-17.8-16.411-19.351zm-357.668 97.395c-14.41 0-26.134-11.724-26.134-26.135 0-14.384 11.682-26.09 26.057-26.132 14.229.162 26.211 11.727 26.211 26.132 0 14.179-11.917 26.135-26.134 26.135zm200.667-167.936 13.853 32.708h-23.269v-43.124c4.118 2.285 7.513 5.922 9.416 10.416zm-29.416-13.058v45.766h-120.446l19.105-28.102c7.739-11.391 18.289-17.664 29.706-17.664zm-156.633 18.797c10.939-11.945 26.732-18.797 43.329-18.797h.365c-1.738 2.009-3.395 4.143-4.943 6.422l-26.748 39.344h-36.71zm236.342 162.197c-14.411 0-26.135-11.724-26.135-26.135 0-14.384 11.682-26.09 26.058-26.132 14.235.062 26.211 11.816 26.211 26.132 0 14.179-11.916 26.135-26.134 26.135zm103.115-52.332h-13.12c-.016-.001-.031-.004-.047-.005-3.312-.181-5.907-2.923-5.907-6.241v-12.855c0-3.444 2.802-6.247 6.246-6.247l12.828-.005z"/><path d="m226.52 325.08c-1.634-3.925-5.72-6.47-9.971-6.141-4.182.323-7.767 3.263-8.895 7.303-2.508 8.982 8.116 16.194 15.581 10.696 3.656-2.692 5.002-7.672 3.285-11.858z"/></g></g></svg>