<svg id="Capa_1" data-name="Capa 1" xmlns="http://www.w3.org/2000/svg" viewBox="0 0 125.29 75.73"><title>exclusive-cars</title><path d="M19.48,66.57c-1.5,7.75-7.61,11.12-14.79,8a6.11,6.11,0,0,1-3.22-4.25C.74,57-.22,43.68,0,30.38c.19-9.29,7.25-13.59,16.13-10.44,4.27,1.51,6.55.54,7.94-3.23C29.23,2.83,39.31-1.28,53.44.33c8.89,1,18,.6,27,.07,8.14-.49,13.43,2.69,16.95,9.82,1.82,3.67,4.18,7.07,6.52,11,2.75-.74,5.26-1.43,7.78-2.1,6.58-1.74,13.49,3.16,13.59,11.05.16,13.31-.59,26.64-1.35,40-.36,6.26-5.65,4.57-9.55,4.92-6,.54-8.8-2.06-7.72-8.44ZM93.7,22.29c-5.34-13-5.34-13-19.81-13-8.5,0-17,.62-25.47-.18-7.5-.71-12,2-14.71,8.58a48,48,0,0,1-2.31,4.5A102.87,102.87,0,0,0,93.7,22.29ZM89.5,57.15c-3.82-7-8.81-9-15.66-8.57a181.14,181.14,0,0,1-24.1,0c-6.83-.43-10.63,2.79-13.82,8.56Zm6.55-6.55c3.54,10,11,6.39,17.52,6.44C112.66,48.29,112.66,48.29,96.05,50.6Zm-67,.09c-16.45-2.82-18.4-2-16.28,6.71C18.64,56.76,26.05,60.46,29.05,50.69ZM19.26,43c-6-6-5.9-15.32-15.89-14.68C4.33,35.37,10,41.2,19.26,43ZM122.35,28.51c-7.72.29-9.66,2.24-14.29,13.75C114.17,42,120.69,35.88,122.35,28.51Z"/></svg>